/* XPM */
static char *_303e94cccc141e1e22ff141d63ebdfaO541raqi6TL4htmX[] = {
/* columns rows colors chars-per-pixel */
"64 64 136 2 ",
"   c None",
".  c #2E1F03",
"X  c #362401",
"o  c #392602",
"O  c #3D2902",
"+  c #432D01",
"@  c #473001",
"#  c #4C3401",
"$  c #503701",
"%  c #553C01",
"&  c #593E00",
"*  c #5D4100",
"=  c #5E4308",
"-  c #624600",
";  c #664901",
":  c #6A4D01",
">  c #6F5001",
",  c #745501",
"<  c #775801",
"1  c #7B5C01",
"2  c #805F01",
"3  c #846301",
"4  c #886701",
"5  c #8C6B00",
"6  c #8D6B00",
"7  c #8C6B01",
"8  c #8D6B01",
"9  c #8C6A00",
"0  c #8D6C00",
"q  c #8D6C01",
"w  c #8E6C00",
"e  c #8E6D00",
"r  c #8F6D00",
"t  c #8E6C01",
"y  c #8E6D01",
"u  c #8F6D01",
"i  c #8F6E00",
"p  c #8F6E01",
"a  c #8D6C02",
"s  c #8E6D02",
"d  c #8E6D03",
"f  c #8F6E02",
"g  c #8F6E04",
"h  c #8B6A01",
"j  c #906E00",
"k  c #906F00",
"l  c #916F00",
"z  c #906E01",
"x  c #906F01",
"c  c #916F01",
"v  c #906F00",
"b  c #917000",
"n  c #917001",
"m  c #927000",
"M  c #927100",
"N  c #927001",
"B  c #927101",
"V  c #937101",
"C  c #937200",
"Z  c #927003",
"A  c #947200",
"S  c #947301",
"D  c #957302",
"F  c #957400",
"G  c #957401",
"H  c #967501",
"J  c #977600",
"K  c #967402",
"L  c #967503",
"P  c #927101",
"I  c #987700",
"U  c #987700",
"Y  c #997801",
"T  c #9A7801",
"R  c #9B7901",
"E  c #9C7B02",
"W  c #9D7C00",
"Q  c #9E7D01",
"!  c #9F7E00",
"~  c #9F7E01",
"^  c #9D7C02",
"/  c #9C7B01",
"(  c #A07F01",
")  c #A17F01",
"_  c #A07E01",
"`  c #A18000",
"'  c #A58302",
"]  c #A68501",
"[  c #A58401",
"{  c #AC8B01",
"}  c #B08F00",
"|  c #B19101",
" . c #B49401",
".. c #B69601",
"X. c #B59501",
"o. c #B89902",
"O. c #B99A03",
"+. c #BC9D01",
"@. c #BE9F00",
"#. c #BB9C01",
"$. c #BFA001",
"%. c #BFA102",
"&. c #BFA000",
"*. c #C0A102",
"=. c #C1A203",
"-. c #C2A403",
";. c #C2A401",
":. c #C7AA01",
">. c #CAAD01",
",. c #C9AC02",
"<. c #CAAD02",
"1. c #CCAF00",
"2. c #CDB102",
"3. c #CFB402",
"4. c #CFB404",
"5. c #D1B601",
"6. c #D3B902",
"7. c #D5BB01",
"8. c #D7BE02",
"9. c #D7BE01",
"0. c #D8BF03",
"q. c #DAC103",
"w. c #DDC602",
"e. c #DDC603",
"r. c #DCC401",
"t. c #DFC900",
"y. c #E1CB01",
"u. c #E5D101",
"i. c #EAD701",
"p. c #EEDD02",
"a. c #EFE000",
"s. c #F2E401",
"d. c #F6EA01",
"f. c #F9EF01",
"g. c #FCF501",
"h. c #FEF801",
/* pixels */
"                                                                                                                                ",
"                                                                                                                                ",
"                                                                                                                                ",
"                                                                                                                                ",
"                                                                                                                                ",
"                                                                                                                                ",
"                                                        @ % % % % # o                                                           ",
"                                                % : < 1 3 3 3 3 3 1 > & # O X .                                                 ",
"                                            > < 4 4 4 1 2 , , , < < < : 4 % # + + o                                             ",
"                                      % , 3 4 4 1 a 3 1 2 4 4 4 3 3 a L D ' } +.; @ + o                                         ",
"                                    : 2 4 4 a a 4 4 4 a 4 w 4 5 h h 3 3 1 : ; 4 7.%.O.# + o                                     ",
"                                * < 4 w L 4 4 x a a 4 w a 4 a 4 3 3 4 3 < : & & % W =.e.+.# # O                                 ",
"                              * 1 D 4 Z 4 L a a a w 4 a a 4 a 4 h 4 3 3 1 ; * & & % % ^ e.<.# + +                               ",
"                            - 4 w W L 4 a a a a a a a a a 4 4 a 4 h 3 3 , ; & & & % % % & O.8.Y # +                             ",
"                          - 4 x a x D a a a x a a a a 4 a a a 4 4 h 3 3 , - * & & & % % % % <.2.W # o                           ",
"                        * 4 4 Z 4 x a x x a a a a a a a a 4 a a h 3 3 3 , - & & % % & % % % % Z 2.( # X                         ",
"                      * 4 L W 4 x x x j w w x w a a a w 4 a a 4 4 4 3 1 > * * * % * & % % % % % ] q.* + X                       ",
"                      < x I a a x x a x x w a w a a a a a 4 a 4 4 4 3 < ; * % % & % % % % & % % % <.<.# O                       ",
"                    > 5 4 a x x x x x x a w x a a a w w a a a a 4 4 1 > - * * % % & % % & % % & % % q.*.# X                     ",
"                  % 4 I a a x x x x x a x x x a a a w a a 4 4 4 4 3 < : * * * % & & * % & % % % % % ..3.; @ .                   ",
"                  , a Y L Z b b x x a x x x a a a a a w h w h h 4 1 , - * * % * & % * % % % & % % & & , -.# O                   ",
"                = 4 Z 3 a a b b x x x x x x x x a d a a 8 h 4 4 1 < : * * * * % * % * % & % % & % & % % 7.` @ .                 ",
"                1 L 4 a Z Z b b x x x x a x x a 8 w w 8 8 h h 3 < > - * * * * % % * % % & & & % % % % % : ..# O                 ",
"                a L a Z Z Z b Z x x x x x x x x w w h w w 4 2 2 > ; - * * * * * * % * * % * % % & % & % * %.4 @                 ",
"              g L 4 L Z Z Z Z Z l x x x x x x x w w 3 2 2 < , > ; - * & % % $ % # % $ % % % * % & % & % & 1 ' # X               ",
"              3 Z 1 Y Z Z b b Z D x x x x x a x w 1 1 2 1 1 - ; - - * % % * # # # @ % # & * % & & % & % % : ( $ +               ",
"              : 4 1 a Z Z Z Z Z D x x x x a x w 1 2 4 4 4 ; ; ; - - % & ; ; % % % % ; * * & & & & & & % & % ; : #               ",
"              1 1 1 a Z Z Z Z Z x x x x w w w 2 3 4 4 w - ; ; - - * % ; ; * % $ % % : - & & & & & & & & & % * > %               ",
"            ; 3 , 1 4 a a a a a j w w w 4 4 1 1 4 3 4 - ; ; ; - - - $ ; * * & % % % > ; * & & * & % & & % & * * ;               ",
"            - 4 : , 1 3 3 4 4 4 4 4 3 3 3 , < 3 1 3 * ; ; ; - ; - - * * * * & % % : : , * * * % & * * % & & * * < ;             ",
"            : a : , < 1 < < 1 1 < 1 < < : , < < 1 ; ; ; ; ; ; - - - - - * % % & > : 1 * * % & * * % * % & & & % * ,             ",
"            , D ; , < < < < < , , , , : , < < 1 : : : : ; ; ; ; - ; - * % % * : > 1 * * * * * & * * & * * & * % > 1             ",
"            < E : < 1 < < < , < , , : , 2 1 < : ; ; : : ; ; ; - ; - - % % * , : 3 * * * * * * * * * % * & & & % * 4             ",
"            4 ] , < 1 1 1 < < < , > , 3 3 1 : - - - - & & & $ ; ; ; * & - * : , * = % % * * * * * & * * * & * # * ,             ",
"            a { , , 1 1 1 1 < < < : 2 4 3 3 1 2 1 < , , , > & ; ; - & - - - : ; * % * * * * * * * & % * * & & # : 3             ",
"            d o.3 , 2 1 1 1 1 < 1 : 4 w 4 4 3 3 2 1 < , , , & ; ; ; & ; - - : * * $ ; : * * * * * * * * * & % % : 3             ",
"              :.I : 2 2 1 1 1 < < , 4 D x w 4 4 2 2 1 < < , & ; ; ; * - ; ; ; % % * : : * - * * * * * * * * % % :               ",
"              5.} : 3 3 1 3 3 1 1 , ] ..| ] E x 4 1 < 1 < < * : : : * % % & I + % % % - - * - * * * * * * * # - :               ",
"              0.1., 2 3 3 1 3 1 1 1 < < , , , , , : , 2 2 < & ; : : ; ; ; - ; - - - - * * - * * * * * - * % # ; ,               ",
"              y.y.D < 4 3 3 3 1 2 1 1 < < , , , , , < 3 2 1 - : : : ; : ; ; ; - - - - - - - - - * - * * * % % > 1               ",
"                p.-., 4 4 4 3 3 3 2 1 1 1 < < < , , 2 4 3 2 ; : : : : ; ; ; ; ; ; - - - - - * * - * * * * $ - 1                 ",
"                s.i.4 3 4 4 4 3 3 2 2 1 1 1 < < < , 2 2 1 < : : : : : : : ; ; ; ; ; ; - - - - - * - - - * $ 1 d                 ",
"                p.f.%.1 a 4 4 4 3 3 1 1 2 1 1 < < < , : : : : > > : : : : ; : ; ; ; - ; ; - - - - - * * # ; ^ 3                 ",
"                  g.s.4 4 a a 4 4 3 3 3 3 1 1 1 < < < , , , , : > : : : : : ; ; ; ; ; - - - - - - - - * $ h {                   ",
"                  d.g.q.1 Z a a 4 4 4 3 2 1 2 1 1 < < < , , , , , : > : : : : ; ; : ; ; ; - - ; - - - @ , ..'                   ",
"                    g.g. .3 Z a 4 4 4 4 3 2 3 1 1 1 1 < , , , , , > > : : : : : : ; ; ; ; ; ; ; - - % * { O.                    ",
"                      g.d.Z w Z a a 4 4 3 3 3 1 1 1 1 < , , , , , , > > > : : : ; : ; ; ; ; ; ; ; & % ^ =.                      ",
"                      d.h.p.a a Z x 4 4 4 3 3 3 2 2 1 1 < < < , , : > > > : > : : ; : ; ; ; ; ; * # h :.{                       ",
"                        g.g.i.4 d Z a w 4 4 4 3 1 1 1 1 < 1 < , , , > > > > : > : ; : ; : ; ; * $ 3 -.@.                        ",
"                          g.g.p.d w D a w 4 4 4 3 2 3 1 1 < < < , , , , > > > : : : : : ; : * # 1 -.*.                          ",
"                            g.h.s.Y 3 D a a 4 4 3 3 3 1 1 1 1 < , , , > , > > > : : : : : % % 4 *.+.                            ",
"                              h.g.f.+.1 4 Z a 4 4 3 3 2 2 1 1 < < < , , , > > > , > : - % * x +.o.                              ",
"                                f.g.g.y.x 1 4 w 4 4 3 1 3 1 1 1 < < , , , , > > : ; % % : ( o.]                                 ",
"                                    g.g.d.5.w < 1 4 4 3 3 1 1 1 1 < < < , , : ; & * : 3 { {                                     ",
"                                      d.g.g.s.5.E < > , , < 1 < , , > : = % & ; , 1 L E I                                       ",
"                                          s.g.f.s.t.-.] d < , : : : : , 1 1 3 Z L D h                                           ",
"                                                p.a.u.w.7.;.o.{ ] ( E c 4 a 3 ;                                                 ",
"                                                        ..] E x 3 1 > ;                                                         ",
"                                                                                                                                ",
"                                                                                                                                ",
"                                                                                                                                ",
"                                                                                                                                ",
"                                                                                                                                ",
"                                                                                                                                "
};
