/* XPM */
static char *_f0702b6182b4fe0b8030c795323525cOOFZaINTFNVryLf0[] = {
/* columns rows colors chars-per-pixel */
"64 64 25 1 ",
"  c None",
". c black",
"X c #010100",
"o c #010101",
"O c #040200",
"+ c #050301",
"@ c #150B02",
"# c #170E03",
"$ c #170C04",
"% c #1A1002",
"& c #201604",
"* c #261906",
"= c #2D1F06",
"- c #312109",
"; c #3A270C",
": c #3C2A0B",
"> c #3C280D",
", c #412A10",
"< c #4B3114",
"1 c #503714",
"2 c #5B3D1A",
"3 c #5C4019",
"4 c #64461B",
"5 c #67481C",
"6 c #6F4E1F",
/* pixels */
"                                                                ",
"                       66664-666116666.66                       ",
"                    61166664-666116666.666.6                    ",
"                  6661166664-666116666.666.664                  ",
"                 66661166664-666116666.666.664-                 ",
"               1166661166664-666116666.666.664-66               ",
"              64-66661166664-666116666.666.664-666              ",
"             664-66661166664-666116666.666.664-6661             ",
"            1664-66661166664-666116666.666.666.66611            ",
"           11664-66661166664-666116666.666.666.666116           ",
"          611664-66661166664-666116666.666.666.6661166          ",
"         6611664-66664-66664-666116666.666.666.66611666         ",
"         6611664-66664-66664-666116666.666.666.66611666         ",
"        66611664-66664-66664-666116666.666.666.666116661        ",
"       166611666.66664-66664-666116666.666.666.6661166611       ",
"       166611666.66664-66664-666116666.666.666.6661166611       ",
"      1166611666.66664-66666.666116666.666.666.66611666116      ",
"      1166611666.66666.66666.666116666.666.666-46611666116      ",
"      1166611666.66666.66666.666116666.666.666-46611666-46      ",
"     6116664-666.66666.66666.666116666.666.666-46611666-466     ",
"     6116664-666.66666.66666.666116666.666.666-46611666-466     ",
"     6116664-666.66666.66666.666116666.666.666-46611666-466     ",
"     6116664-666.66666-46666.666116666.666.666-46611666-466     ",
"     6116664-666-46666-46666.666116666.666.666-46611666-466     ",
"     6116664-666-46666-46666.666116666.666.666-46611666-466     ",
"     6116664-666-46666-46666.6664-6666.666.666-4664-666-466     ",
"     64-6664-666-46666-46666.6;#@$6666.666.666-4664-666-466     ",
"     64-6664-666-46666-46666.+....+;66.666.66611664-666-466     ",
"     64-6664-666-4666611666;........;6.666.66611664-666-466     ",
"     64-6664-666-4666611666+........+6.666.66611664-666-466     ",
"     64-6664-666-466661166;..........;.666.66611664-666-466     ",
"     64-6664-666-466661166#..........#.666.66611664-666-466     ",
"     64-6666.6661166661166#..........#.666.66611664-666.666     ",
"     64-6666.6661166661166;..........;.666.66611664-666.666     ",
"     66.6666.66611666611666+........+6.666.66611664-666.666     ",
"     66.6666.66611666611666;........;6.666.66611664-666.666     ",
"     66.6666.666116666116666........66.666.66611664-666.666     ",
"     66.6666.666116666116663........56.666.66611664-666.666     ",
"     66.6666.66611666611666*........>6.666.66611664-666.666     ",
"     66.6666.6661166664-666.........+6.666.66611664-666.666     ",
"     66.6666.6661166664-666..........6.666.66611666.666.666     ",
"     66.6666.6661166664-666..........6.666.66611666.666.666     ",
"     66.6666.6661166664-662..........2.666.66611666.666.666     ",
"     66-4666.6661166664-66=..........:.666.66611666.666.666     ",
"     66-4666.6661166666.66&..........%.666.66611666.666.666     ",
"     66-4666.6661166666.66<+.........,.666.66611666.666.666     ",
"     66-4666-4661166666.6666-4666.6666.666.66611666.666.666     ",
"     66-4666-4661166666.6666-4666.6666.666.6664-666.664-666     ",
"     66-4666-4661166666.6666-4666.6666.666.6664-666.664-666     ",
"     66-4666-4661166666.6666-4666.6666.666.6664-666.664-666     ",
"     66-4666-4664-66666-4666-4666.6666.666.6664-666.664-666     ",
"     6611666-4664-66666-4666-4666.6666.666.6664-666.664-666     ",
"     6611666-4664-66666-4666-4666.6666.666.6664-666.664-666     ",
"     6611666-4664-66666-4666-4666.6666.666.6664-666.664-666     ",
"     6611666-4664-66666-4666-4666-4666.666.6664-666.664-666     ",
"     6611666-4664-6666611666-4666-4666.666.6664-666-464-666     ",
"     6611666-4664-6666611666-4666-4666.666.6664-666-464-666     ",
"     6611666-4664-6666611666-4666-4666.666.6666.666-464-666     ",
"     6611666-4666.666661166611666-4666.666.6666.666-464-666     ",
"     6611666-4666.666661166611666-4666.666.6666.666-464-666     ",
"     661166611666.666661166611666-4666.666.6666.666-464-666     ",
"     661166611666.666661166611666-4666.666.6666.666-4611666     ",
"      61166611666.666661166611666-4666.666.6666.666-461166      ",
"                                                                "
};
