/* XPM */
static char *_7d0dd09b30543c7d5a967b32cb5b7e1mMkdCyWo0lyfRgvx[] = {
/* columns rows colors chars-per-pixel */
"64 64 168 2 ",
"   c None",
".  c black",
"X  c #010100",
"o  c #020100",
"O  c #030200",
"+  c #040200",
"@  c #060301",
"#  c #070301",
"$  c #080400",
"%  c #080401",
"&  c #0A0501",
"*  c #0C0601",
"=  c #0F0701",
"-  c #0E0702",
";  c #0F0801",
":  c #100902",
">  c #110902",
",  c #120A02",
"<  c #130A02",
"1  c #140B02",
"2  c #160C02",
"3  c #170D03",
"4  c #180D03",
"5  c #1B1103",
"6  c #1C1103",
"7  c #1E1203",
"8  c #201304",
"9  c #201404",
"0  c #221505",
"q  c #241705",
"w  c #251705",
"e  c #271906",
"r  c #291A06",
"t  c #2A1B07",
"y  c #2E1F07",
"u  c #2D1E08",
"i  c #2E1E08",
"p  c #2F1E08",
"a  c #2F1F08",
"s  c #312008",
"d  c #322109",
"f  c #322209",
"g  c #33220A",
"h  c #34220A",
"j  c #36240A",
"k  c #36250A",
"l  c #38250B",
"z  c #38260B",
"x  c #39260C",
"c  c #3B280D",
"v  c #3C280C",
"b  c #3C280D",
"n  c #3D290D",
"m  c #3D2A0D",
"M  c #3F2B0D",
"N  c #3F2A0E",
"B  c #412B0F",
"V  c #412C0E",
"C  c #422C0E",
"Z  c #422D0F",
"A  c #432D0F",
"S  c #442F10",
"D  c #452F10",
"F  c #473111",
"G  c #483111",
"H  c #483211",
"J  c #493211",
"K  c #4A3212",
"L  c #4A3312",
"P  c #4B3312",
"I  c #4B3412",
"U  c #4C3412",
"Y  c #4D3412",
"T  c #4C3512",
"R  c #4C3413",
"E  c #4D3513",
"W  c #4E3613",
"Q  c #4F3613",
"!  c #4F3713",
"~  c #4E3614",
"^  c #4F3714",
"/  c #513714",
"(  c #513814",
")  c #523914",
"_  c #533914",
"`  c #523915",
"'  c #533915",
"]  c #533A15",
"[  c #523916",
"{  c #543A15",
"}  c #553B15",
"|  c #543A16",
" . c #553A16",
".. c #553B16",
"X. c #563C16",
"o. c #573C16",
"O. c #573D16",
"+. c #573C17",
"@. c #583D16",
"#. c #583D17",
"$. c #583E16",
"%. c #583E17",
"&. c #593E17",
"*. c #5A3E17",
"=. c #5A3F17",
"-. c #5B3F17",
";. c #5A3E18",
":. c #5A3F18",
">. c #5B3F18",
",. c #5B4018",
"<. c #5C4018",
"1. c #5D4018",
"2. c #5D4118",
"3. c #5C4019",
"4. c #5D4119",
"5. c #5E4119",
"6. c #5E4219",
"7. c #5F4219",
"8. c #5F4319",
"9. c #5F421A",
"0. c #604219",
"q. c #604319",
"w. c #60431A",
"e. c #61431A",
"r. c #624519",
"t. c #61441A",
"y. c #62441A",
"u. c #63441A",
"i. c #62451A",
"p. c #63451A",
"a. c #62441B",
"s. c #62451B",
"d. c #63451B",
"f. c #63461A",
"g. c #63461B",
"h. c #64451B",
"j. c #64461B",
"k. c #65461B",
"l. c #64471B",
"z. c #65471B",
"x. c #65471C",
"c. c #66471C",
"v. c #66481C",
"b. c #67481C",
"n. c #67491C",
"m. c #67481D",
"M. c #68481C",
"N. c #68491C",
"B. c #68491D",
"V. c #69491D",
"C. c #694A1D",
"Z. c #6A4A1D",
"A. c #6B4B1D",
"S. c #6A4B1E",
"D. c #6B4B1E",
"F. c #6C4B1E",
"G. c #6B4C1E",
"H. c #6C4C1E",
"J. c #6D4C1E",
"K. c #6D4D1E",
"L. c #6D4C1F",
"P. c #6D4D1F",
"I. c #6E4D1E",
"U. c #6E4D1F",
"Y. c #6E4E1F",
"T. c #6F4E1F",
"R. c #704E1F",
"E. c #704F1F",
/* pixels */
"                                                                                                                                ",
"                                              . . . . . . . . . . . . . . . . . .                                               ",
"                                        . . . . . . . . . . . . . . . . . . . . . . . .                                         ",
"                                    . . . . . . . . . . . . . . . . . . . . . . . . . . . ,                                     ",
"                                  . . . . . . . . . . . . . . . . . . . . . . . . . . , A o.s                                   ",
"                              . . . . . . . . . . . . . . . . . . . . . . . . . . . t F A.h.J v 7                               ",
"                            . . . . . . . . . . . . . . . . . . . . . . . . . . . u *.w.A.v.} ,.E j                             ",
"                          . . . . . . . . . . . . . . . . . . . . . . . . . . + F A.1.w.F.v.} h.t.*.E                           ",
"                        . . . . . . . . . . . . . . . . . . . . . . . . . . . t w.A.1.w.F.h.o.t.t.t.t.a.                        ",
"                      . . . . . . . . . . . . . . . . . . . . . . . . . . . + E M.F.1.w.F.N.} h.v.8.t.A.F                       ",
"                    . . . . . . . . . . . . . . . . . . . . . . . . . . . . q b.b.A.1.a.A.N.} h.t.t.t.L.o.J                     ",
"                  . . . . . . . . . . . . . . . . . . . . . . . . . . . . + ) b.b.L.1.t.A.N.} t.t.8.t.A.,.1.~                   ",
"                  . . . . . . . . . . . . . . . . . . . . . . . . . . . . u 1.b.b.S.9.w.F.x.} h.v.8.t.A.*.t.b.                  ",
"                . . . . . . . . . . . . . . . . . . . . . . . . . . . . . ~ 1.b.A.S.1.w.F.m.| h.t.r.t.E.*.x.L.o.                ",
"              . . . . . . . . . . . . . . . . . . . . . . . . . . . . . = :.1.b.x.S.1.w.F.A.| h.h.t.t.A.:.t.L.1.J               ",
"              . . . . . . . . . . . . . . . . . . . . . . . . . . . . . t w.1.b.x.A.1.w.F.x.| t.f.h.1.E.%.b.E.1.o.              ",
"            . . . . . . . . . . . . . . . . . . . . . . . . . . . . . . M b.1.b.A.L.1.w.F.v.} r.f.h.1.E.,.t.E.,.,.,.            ",
"            . . . . . . . . . . . . . . . . . . . . . . . . . . . . . & I C.1.b.x.A.1.1.A.N.} h.f.t.1.E.o.b.L.1.,.b.            ",
"            . . . . . . . . . . . . . . . . . . . . . . . . . . . . . 4 %.b.,.b.b.L.:.1.A.v.} r.l.a.1.E.:.t.E.,.,.G.            ",
"          . . . . . . . . . . . . . . . . . . . . . . . . . . . . . . 5 ,.b.1.b.A.L.>.1.A.N.} h.t.x.1.E.%.b.L.,.,.L.F           ",
"          . . . . . . . . . . . . . . . . . . . . . . . . . . . . . . 0 9.b.1.b.b.E.1.1.A.v.| h.v.t.1.E.,.a.E.1.1.L.F           ",
"          . . . . . . . . . . . . . . . . . . . . . . . . . . . . . . g 9.b.,.b.b.A.1.1.F.v.o.t.v.a.8.A.:.x.L.,.1.A.J           ",
"          . . . . . . . . . . . . . . . . . . . . . . . . . . . . . . S a.b.,.b.b.E.,.1.A.N.} r.t.t.8.E.,.t.E.,.,.L.E           ",
"          . . . . . . . . . . . . . . . . . . . . . . . . . . . . . . m 9.b.,.A.b.L.,.9.A.N.} h.f.h.1.E.1.1.L.1.1.L.~           ",
"          . . . . . . . . . . . . . . . . . . . . . . . . . . . . . . A w.v.,.A.b.L.o.I b.b.} r.t.x.:.L.8.9.L.,.,.E.[           ",
"          . . . . . . . . . . . . . . . . . . . . . . . . . . . . . . B t.v.:.b.b.L.g 2 x t.} h.h.m.%.E.1.1.E.,.,.L.)           ",
"          . . . . . . . . . . . . . . . . . . . . . . . . . . . . . . B t.b.,.A.b.t.= . . F | h.h.A.%.L.9.1.E.,.,.E.)           ",
"          . . . . . . . . . . . . . . . . . . . . . . . . . . . . . . S t.b.:.A.b.) . . . u | t.t.b.%.E.8.9.L.,.,.L.)           ",
"          . . . . . . . . . . . . . . . . . . . . . . . . . . . . . . M t.b.,.A.t.m . . . , _ h.f.b.o.L.8.1.E.,.1.E.)           ",
"          . . . . . . . . . . . . . . . . . . . . . . . . . . . . . . A t.x.*.A.v.z . . . = _ t.f.A.:.E.8.1.L.:.1.L.|           ",
"          . . . . . . . . . . . . . . . . . . . . . . . . . . . . . . A t.a.,.A.h.I . . . e ) h.t.A.o.L.8.1.L.%.9.L.|           ",
"          . . . . . . . . . . . . . . . . . . . . . . . . . . . . . . A a.b.*.A.h.w.$ . . m o.t.t.b.:.E.t.1.L.%.8.E.)           ",
"          . . . . . . . . . . . . . . . . . . . . . . . . . . . . . . A t.x.*.G.h.G.4 . . 1.} h.v.N.o.E.8.1.E.%.,.L.[           ",
"          . . . . . . . . . . . . . . . . . . . . . . . . . . . . . . A t.b.*.A.v.t.; . . t.} t.r.N.o.E.9.1.E.%.8.E.)           ",
"          . . . . . . . . . . . . . . . . . . . . . . . . . . . . . . A t.x.,.G.h.,.. . . I o.h.t.A.o.E.8.1.E.o.1.E.)           ",
"          . . . . . . . . . . . . . . . . . . . . . . . . . . . . . . A t.x.,.A.t.,.. . . x | t.t.A.| E.8.1.E.o.9.E.[           ",
"          . . . . . . . . . . . . . . . . . . . . . . . . . . . . . . A a.b.,.G.h.) . . . j } r.t.A.o.E.1.1.E.o.1.L.|           ",
"          . . . . . . . . . . . . . . . . . . . . . . . . . . . . . . A a.b.,.A.t.m . . . y } h.t.A.:.L.a.1.E.o.a.E.)           ",
"          . . . . . . . . . . . . . . . . . . . . . . . . . . . . . . A t.h.,.A.t.B . . . 7 _ t.t.b.%.L.t.,.A.o.1.E.)           ",
"          . . . . . . . . . . . . . . . . . . . . . . . . . . . . . . A h.v.,.L.t.b.j 0 . , _ h.f.A.%.L.t.,.E.*.8.L.|           ",
"          . . . . . . . . . . . . . . . . . . . . . . . . . . . . . . A x.t.1.E.t.L.1.1.,.E ) t.t.A.:.E.t.,.E.o.8.L.[           ",
"          . . . . . . . . . . . . . . . . . . . . . . . . . . . . . . B t.b.*.A.t.E.1.1.A.N.| h.t.A.| E.t.,.A.o.8.E.)           ",
"          . . . . . . . . . . . . . . . . . . . . . . . . . . . . . . A x.t.,.E.a.L.,.1.A.N.} t.t.A.o.A.t.<.E.*.1.E.)           ",
"          . . . . . . . . . . . . . . . . . . . . . . . . . . . . . . B a.a.%.L.t.L.,.t.A.N.} h.t.A.) E.t.,.A.o.9.E.[           ",
"          . . . . . . . . . . . . . . . . . . . . . . . . . . . . . . A t.h.*.A.t.L.,.t.A.A.} t.v.A.) E.t.-.A.*.w.L.|           ",
"          . . . . . . . . . . . . . . . . . . . . . . . . . . . . . . A h.h.,.L.t.L.,.t.G.b.o.h.t.A.( E.t.*.E.| t.E.)           ",
"          . . . . . . . . . . . . . . . . . . . . . . . . . . . . . . m t.x.*.E.t.L.1.t.A.b.| t.f.A.! E.h.*.A.| t.E.)           ",
"          . . . . . . . . . . . . . . . . . . . . . . . . . . . . . . 2 :.t.*.A.t.L.,.b.b.b.| h.f.G.! E.t.>.E.| t.E.|           ",
"          . . . . . . . . . . . . . . . . . . . . . . . . . . . . . . . e E *.A.w.E.<.h.N.v.} r.f.A.) E.t.*.A.| t.E.|           ",
"          . . . . . . . . . . . . . . . . . . . . . . . . . . . . . . . . . t G.w.A.,.h.h.N.} h.f.A.( E.t.:.A.*.t.E.)           ",
"          . . . . . . . . . . . . . . . . . . . . . . . . . . . . . . . . . . g / A.<.t.N.N.} r.f.L.( A.t.1.L.) t.A.o.          ",
"          . . . . . . . . . . . . . . . . . . . . . . . . . . . . . . . . . . . 5 ~ *.h.h.N.} h.f.A.( E.t.,.L.o.h.E.)           ",
"          . . . . . . . . . . . . . . . . . . . . . . . . . . . . . . . . . . . . + g o.A.x.| h.f.E.~ L.b.:.P.| t.E.)           ",
"          . . . . . . . . . . . . . . . . . . . . . . . . . . . . . . . . . . . . . . 6 | h.| h.f.E.I E.b.o.L.) h.L.|           ",
"          . . . . . . . . . . . . . . . . . . . . . . . . . . . . . . . . . . . . . . . 2 m ' x.f.L.I E.t.,.A.o.t.E.|           ",
"          . . . . . . . . . . . . . . . . . . . . . . . . . . . . . . . . . . . . . . . . . u | f.E.I E.b.o.A.| h.L.)           ",
"          . . . . . . . . . . . . . . . . . . . . . . . . . . . . . . . . . . . . . . . . . . 1 J A.J E.x.%.A.o.t.E.|           ",
"          . . . . . . . . . . . . . . . . . . . . . . . . . . . . . . . . . . . . . . . . . . . $ A m E.x.:.F.| t.E.)           ",
"          . . . . . . . . . . . . . . . . . . . . . . . . . . . . . . . . . . . . . . . . . . . . $ , :.w.:.A.) t.A.o.          ",
"          . . . . . . . . . . . . . . . . . . . . . . . . . . . . . . . . . . . . . . . . . . . . . . . x | A.) h.E.)           ",
"          . . . . . . . . . . . . . . . . . . . . . . . . . . . . . . . . . . . . . . . . . . . . . . . # g :.) b.E.)           ",
"          . . . . . . . . . . . . . . . . . . . . . . . . . . . . . . . . . . . . . . . . . . . . . . . . . 0 c a.A.|           ",
"            . . . . . . . . . . . . . . . . . . . . . . . . . . . . . . . . . . . . . . . . . . . . . . . . . # B o.            ",
"                                                                                                                                "
};
