/* XPM */
static char *_f67fe2589d145e99eca84d57add9629xptW2xm6vYfwRamm[] = {
/* columns rows colors chars-per-pixel */
"64 64 147 2 ",
"   c #020101",
".  c #090506",
"X  c #090807",
"o  c #0B0708",
"O  c #0D0A0B",
"+  c #100D0D",
"@  c #130F10",
"#  c #151212",
"$  c #191616",
"%  c #161816",
"&  c #191917",
"*  c #1B1718",
"=  c #1D1A1A",
"-  c #211E1E",
";  c #1F211F",
":  c #20211F",
">  c #231F20",
",  c #252423",
"<  c #292526",
"1  c #272A27",
"2  c #282A27",
"3  c #2B2728",
"4  c #2C2C2B",
"5  c #312D2E",
"6  c #2F312E",
"7  c #30312F",
"8  c #332F30",
"9  c #343432",
"0  c #393536",
"q  c #373836",
"w  c #383837",
"e  c #3B3738",
"r  c #3C3C3A",
"t  c #413E3E",
"y  c #3F403E",
"u  c #40403F",
"i  c #433F40",
"p  c #444343",
"a  c #494646",
"s  c #474846",
"d  c #484947",
"f  c #4B4748",
"g  c #4D4A4B",
"h  c #514D4E",
"j  c #51504F",
"k  c #534F50",
"l  c #555252",
"z  c #595556",
"x  c #585857",
"c  c #5B5758",
"v  c #5D5A5B",
"b  c #615D5E",
"n  c #61605F",
"m  c #635F60",
"M  c #656262",
"N  c #696566",
"B  c #6B6768",
"V  c #6D6A6A",
"C  c #716E6E",
"Z  c #716D6E",
"A  c #6F716F",
"S  c #71706F",
"D  c #736F70",
"F  c #736F70",
"G  c #747171",
"H  c #757172",
"J  c #767273",
"K  c #777374",
"L  c #767474",
"P  c #757273",
"I  c #787475",
"U  c #797576",
"Y  c #797676",
"T  c #7A7677",
"R  c #797676",
"E  c #7A7778",
"W  c #7B7778",
"Q  c #7D7A7B",
"!  c #7E7B7B",
"~  c #7D7A7B",
"^  c #817D7E",
"/  c #817F7F",
"(  c #827E7F",
")  c #817D7E",
"_  c #837F80",
"`  c #848081",
"'  c #858182",
"]  c #858283",
"[  c #868384",
"{  c #878585",
"}  c #858283",
"|  c #8A8687",
" . c #898586",
".. c #8B8788",
"X. c #8A8888",
"o. c #8D898A",
"O. c #8E8A8B",
"+. c #8D8A8B",
"@. c #908C8D",
"#. c #918D8E",
"$. c #928E8F",
"%. c #918D8E",
"&. c #938F90",
"*. c #938F90",
"=. c #949091",
"-. c #959192",
";. c #969293",
":. c #959192",
">. c #9A9697",
",. c #999596",
"<. c #9B9798",
"1. c #9A9798",
"2. c #9D999A",
"3. c #9E9B9C",
"4. c #9D9A9A",
"5. c #A19E9E",
"6. c #A29E9F",
"7. c #A19D9E",
"8. c #A39FA0",
"9. c #A4A0A1",
"0. c #A5A1A2",
"q. c #A5A2A3",
"w. c #A6A2A3",
"e. c #A6A3A4",
"r. c #A5A2A3",
"t. c #A9A5A6",
"y. c #A9A5A6",
"u. c #ABA7A8",
"i. c #ABA8A9",
"p. c #AEAAAB",
"a. c #AFACAD",
"s. c #ACA9AA",
"d. c #B0ACAD",
"f. c #B2AEAF",
"g. c #B2AFAF",
"h. c #B1ADAE",
"j. c #B3AFB0",
"k. c #B4B1B2",
"l. c #B5B2B3",
"z. c #B9B5B6",
"x. c #BBB7B8",
"c. c #BBB9BA",
"v. c #BCB9BA",
"b. c #C2BEBF",
"n. c #C6C2C3",
"m. c #C9C6C6",
"M. c #CECCCC",
/* pixels */
"r r g w w 9 g B p x c z z c x v v c h l 7 # O   & g V v c z B z H B z 9 p P b b v v 1 L v k k k k k k k r j { v g s 1 1 v v v c ",
"f 1 r d v N B l l 4 a l l l l z b b k t 7 2 2 2 2 p M l v c m l H M t 6 M n g g f f 8 h v k k k k k l i 7 ] ] V V V E r 1 g v v ",
"a 2 Z z i f g g k g 1 a c v c c l b p 4 7 l / v 1 1 p Z ` ! / Z V g 4 j M g g g f h r r v k k k k k l 5 Z ] B V V Z v q 1 1 g z ",
"t 2 g 9 t h z c c c a 1 f g g f s 7 1 u V M p 5 5 x q 6 l g l l v 9 w M g g g g g g g 1 v v k k k k e j ] V V B n u 1 7 A s 1 4 ",
"2 2 V g c M B B B M M r 2 1 1 1 1 1 r M b > - $ r V D 6 2 2 2 2 1 1 B m g g g g g f g 8 g v k l k p 9 ] ] V n x 6 2 v [ ] s , 2 ",
":.2 Q B H H D V N M v r M c.q.q.a.p v v 5 o w B ] ] E 9 v X.P M B 1 D z g g g h g g g r e j f g g 4 B Q V v r 1 r E ] V v 1 = - ",
"*.2 E E H B m m v c x 4 3.k.q.e.f.f.r m i 4 Z a.1.H p r V l M k l 0 i c h f f g g f g q 1 1 1 1 1 1 r v s 6 7 M { ] B B 9 - - . ",
"8.2 E V B c l c l z r M a.2.8.0.;.1.Q 1 e i Z / B r y D G l b l k t e z g g f g g g t 1 g Q m m M v 9 1 1 g A E Z Z B s : = . o ",
"0.1 w g h g g h z l 4 3.0.+.;.=.%.X./ v 1 g Q E g 9 c D m M h k h k 1 k l g f f k h 5 r B N g l h k l h 9 w s b V E M 1 4 1     ",
"M s L w 4 t h l g w n i.=.=.:.+.X.o.o.%.g 1 N x 7 V V v g h g N z k w p l g h h f e 6 m B j k k k l h g g h q , q v 9 - 1 * * * ",
"x M ) N N d 2 r h 4 u.i.;.,.%. .4.1.X./ g x 6 9 M U g k k m h k l l i w a i i p i 1 c n j z c j l k h g g l t w u , 2 %       # ",
"s / _ N N M V g 7 2 z.X.=.:.+.+.] :.X.g M V 1 1 n b z m k z f l l z t 2 1 1 4 1 1 1 q p f l z g h k l h h p 2 r =   ; 2 ,       ",
"p / B B B B B N M 1 3. .=.%.O.:.] X.s v ~ a < 1 7 m b c h c h z z z 7 q v a p a a g 5 1 4 a g g f k l l l 7 9 0 @ 3 i l 7 2 % . ",
"n ! M N B B B N N 1 0.%.2.:. .:.+.g l B h i p b 7 M b h h b k h g p 1 r i 4 8 0 8 8 4 4 4 1 7 r p h h h t 4 r > i e 8 3 4 , 2 2 ",
"O.) B B B B N N S 2 3.{ *.%.[ %.p c F z h i f z x 9 Q N t p p p 9 4 2 h i 4 5 8 8 5 3 5 4 x :.v q 7 r f 4 t e 3 * , 3 , 1 ; j V ",
"! S M N Z F G Z V 1 G x N d d 1 1 m z a 8 8 t p g p p g r 7 2 r l n 1 v a e 0 8 0 8 8 e 4 M i.:.,.` v 9 3 r 3 > > 3 , - - y V z ",
"x Z M V Z Z G I s 2 2 q y l h L 9 4 p w - 3 e i 4 , 2 q q x H D b v 7 r i e e 9 9 w w w 1 / a.,.=.=.=.3.9 1 4 , 3 > , - q V V h ",
"q T ) Z B B h 4 1 r Q L / b h b 9 1 , # , g z N z 1 g @.E P H M c v r 7 8 5 5 5 8 5 5 7 1 3.y.;.;.;.=.;.Q 2 4 4 > > = 7 M B k h ",
"S V T G Z z e 4 2 V _ D B z k k z < 1 5 V 3.F V r 1 ;.1.Q P N k z z p 2 3 2 4 1 1 1 1 1 1 l.y.;.=.;.;.=.:.g 2 4 > # , v V k h h ",
"n w n N z t a 4 x +.D c h z c g p 1 8 1 V Z 9 5 9 1 v z g h k g k k t r E M m N M M M M 1 l.3.*.=.=.=.=.*.{ 2 4 = , 2 l k k k k ",
"Z 1 1 1 2 2 2 1 D E v k k m b i 8 t i r 2 7 5 2 = # , y g c M b k k t r N k k k l l k k 6 ] 3.*.%.=.*.%.%.%.n 1 , l r 2 p k l l ",
"n.1 Z v Z [ { d p z m l k z g 0 e l r r p p # o $ + # 1 t g g t h k 9 g m k k l k l k l 9 V 3.=.=.=.*.*.%.%.v 1 N V l w 2 s z k ",
"x.2 2.7. .N k g e r V z k i 8 3 f p 4 0 g > # @ O X # = 2 p z j h k 9 j N k k l k l l k r j 1.*.;.;.;.;.;.! 1 g / x z l w 2 p g ",
":.2 D k k b h 3 e m 8 g g i < 1 4 1 > 4 e 4 o o @ O @ @ - 1 r l j j 7 z N k k k k k k l p 2 y Q ;.;.;.;.;.s y V V l l l l w 1 4 ",
"..2 B 4 4 e t 8 e z M 9 i 9 1 1 1 4 9 8 < * @ @ O @ O @ % n P 9 f h 1 M N k z z k k k k r z ] r y Q %.%.A 7 M V z z z l l t r A ",
"2 2 m 9 i f e 3 g z i 1 2 9 8 c 1 v k f 8 - # O @ O O o q 3.a.A q a 1 b b j k k l z k p 1 { :.~ A r r E 9 N V z z l z l k e p M ",
"o.2 D B N m c k m h 4 1 0 V m _ p e r 3 * O o . + O O * A a.:.:.X.u 1 q g l k k k k j 9 v ;.E Q Q / D r 1 E m c l l l l l 6 j N ",
"i.2 ..E V m m U M r 2 p D V M F g 1 > @ o O # @ + + . r s.i.:.:.$.@./ u 1 7 a a p a t 2 { ,.Q Q Q Q ) / 1 j n l l a g a a 1 b M ",
"i.2 2 r w s p c 9 2 g v M V m B m 1 - - O @ # @ + O ; @.s.:.*.:.1.,.*.:.] r 1 4 e p 4 z ;._ ~ _ _ _ _ _ p r g r r q 9 7 1 1 A N ",
"{ 2 8 , , , 1 2 1 v h 3 p k v D c 9 : - O O + . + O s a.:.:.:.:.,.:.*.*.*.g 4 q 1 3 2 o.,.~ ~ ~ _ Q _ Q v 1 1 r r g j c N 1 D b ",
"H 2 4 * # # 3 9 1 E w > f h k k k e , @ o O + o . , i.s.:.:.:.:.@.@.$.;.n 4 9 * > > 1 D _ ~ ~ ~ _ _ Q ~ j s Q M B j k k k 4 l b ",
"_ 2 = O # = - * , p , 3 D _ V h c h 2 2 1 1 1 1 1 1 c.9.:.:.:.:.*.,.:.B 4 6 8 - > = = 1 F _ _ _ Q _ Q B 1 n B k k k k l k q p b ",
"/ 2 > $ $ $ $ + - , , p Q N g i l l 2 P v m B B N 1 =.2.3.@.%.@.,.,.U 1 8 8 * * - - * = 3 H ! Q ! ! P q p B l l k k k k k r r k ",
"U 2 > # O O # + = 8 k V D f k k p l 2 H m c k i g 7 / 5.<.o.&.3.,.Q 4 8 9 = = * - = * = = a ` ! ! L y 2 B N h l k k k k k t 2 4 ",
"_ 2 < O     O X O ; # p c h h r v M 2 D k l c v z q v =.2.;.*. .Q 4 6 9 = * * = * * * * - , a ` P y x 6 V c h k k k k k l r r V ",
"V 2 > # # = = + % 1 2 7 w 5 e e 9 i 2 I f f k z v g z %.:. .%.:.p 6 9 * * * = = * $ $ $ = = = M u z V r p c k k k k k k j q g B ",
"4 1 9 4 > = + O 1 2 v h p , , 5 2 2 2 c = 8 g M x w 2 1 2 2 2 1 1 6 = * = * = * * & # $ & O ; 2 M V l g 4 v c k k k k k l 1 n B ",
"5 4 2 +       1 9 B L M N 3 . $ 8 r 2 V k p i e w 1 4 v J W V z h 1 ; * * * * * * * * & O ; 6 l ] l l l 7 g v l k k k k p 7 B k ",
"i r 1 2 ; X ; 1 5 h g 9 8 3 i m z k 2 E j s p w 1 1 M Z ! m v m l f 4 ; * * * * & * % @ , 7 M V l c l l r 7 x x k k k k r p M k ",
"5 5 1 v L r 1 h m h i O   . i m p t 2 l w 4 w x G 1 =.;.,.b f l z z k 5 - @ @ @ # $ O : u V V z x x g r 4 6 g c k k j h 9 j B k ",
"9 3 r V c b q p i i i < @ 3 f i 5 5 2 r x B E / N 1 G { V v c z z k i 9 2 1 - = % % ; l V V z g s e 4 L M r r g h p g g 2 A B f ",
"3 w B B l l h 1 4 0 8 = + 3 i z 5 > s *.E b b B L y v ! N v l h k p 9 1 D &.B l s 1 1 B z g p 9 l Z c j u 5 1 2 1 1 2 2 2 Z M b ",
"5 M V j h h h r 1 8 3 > > > > 5 4 1 B / N b c b ! r p V l h h a t 6 1 Z :._ ~ _ Q ..s r g 7 m B v c c h 4 6 r Q Q B b M 1 h b f ",
"b V l l k k j h 7 < O . > 3 9 f < 7 Q _ B v z b N g y M l h h g 7 2 Z *.W ~ _ _ E / ] s 2 M M M k a u q 4 p b o.P M m M w r z g ",
"b z k k k k k l p 1 * > 8 5 8 a 1 l H m z g k m M l 1 1 1 1 1 1 1 Q q.o.] / _ _ { [ ] ] a 9 l l z x 7 r l m B @.~ M z v y 2 1 1 ",
"9 z z h h h h k a r w u 9 = + # 1 U Z z k h c D { g l { x m ! o.y A ] ] ] [ | _ ] _ ` ] ! r 2 & e 4 u p g f l m | V c s 7 V z.1.",
"i t z k z k k h g q 1 1 2 1 2 2 1 E b k z z m E ) 4 N b 5 i b N r 5 h B E ] | _ H E E H x 9 1 1 1 1 4 q z b v M v m x 9 s ! ;.%.",
"p w k b b c c f e 1 j L a g v b 7 p e 5 e e i k w p N k z m N z p t 4 g V _ _ ~ E H M t 2 6 V i.4.+.l 7 2 r p f 9 = , 7 P ] v s ",
"0 h 5 c z z j r 2 h m 3 - 0 i f r 6 , 9 g g x v 4 V L V G Z V E B b D r z ~ D B j r 1 1 l 8.a.+.1.*.:.4.E j 6 1 1 1 1 { e.3.q.:.",
"k f 7 r r 5 1 1 g v 8 * 3 v Z D 2.9 x V ) ) Q a z O.G G ! ) ` *._ L E V q l p r 4 q l 6 3.=.:.i.e.a.j.a.:.Z p x X.E 7 y.i.i.8.,.",
"3 0 1 2 1 1 1 9 : 4 p i M &.,.8.Z y r g v V Z 4 ` +.~ ` O. ./ ` M B l s q 1 r g n b j y V k.c.n.m.j.3.e.{ 9 E E / { V s f.e.;...",
"a 4 , 5 E %.N t z M l k o.8.F v a 7 1 1 2 2 1 1 L t.0.e.q.X.V N V O.g 1 6 z +.~ v v M B r m.c.1.[ ] [ V r / 1.3.{ ] / t Q 1.*.%.",
"p 1 1 / j.4.U V r r Z E Q D i f 1 1 r ! ,.a.1.v 6 y N N Z V N G Z d 1 9 V [ @.@./ E ..8.y ] X.] o.o.n y V V c M Z B M v 9 e.i.t.",
"< 1 f [ D k h Z j p 1 9 l r 1 2 1 a ! O.2. .v h v a 6 z m v j g 9 2 7 z @.7.:.[ ] ~ H V r p P / P p g B z v z h z k k x s n 3.2.",
"1 1 +.] Z m f t z z z 4 2 r f E p N k.t. .Z l b j l l q z l 7 s =.g p v +.@.N k h c l p 6 1 2 2 1 1 B M h p h l k f g k z 1 2 2 ",
"E 1 / h h h h c l s h 9 x x.b.m.T q T C l z h v v c l r 1 g %.s.l.m.A ` ..B f g f f f r 1 b o.H U t 7 h z c c l k f p p g 1 1.+.",
"h 1 M k k k k k l k l 6 3.z.q.3.t.2.9 g l v v g x x u 1 V M.O.2.e.e.p.l u j z g h g r 2 p E v v v x 4 p z k k h v z l l k 2 ] L ",
"k 1 M l k k k k h h q x 4.] _ / ` o.N 1 p v v l h j 6 p j.0.W X.i.q.e.t.l a z j z p 4 r ! E m v M M v 2 l z g g a a p p a 2 ] V ",
"k 2 z g g l l k z z 4 X.:.~ _ ] W ) ) n 2 s g y 9 4 1 u.a.O.%.0.k.3.2.8.2.g r w r 1 7 V E M M m M M M h 9 c l h p g p q 4 2 ~ p ",
"j 1 7 w p g g g k w z ;.~ / _ ] ) ) ) / p 1 w x [ e.q j.p.e.j.b.z.2.:.2.,.l 1 2 2 2 M H b n b M m m m b y i p r 4 2 > * $ 2 8.2.",
"t p M s 9 2 9 y g 4 *.:.Q _ ~ W ! T T L w { M.z.3.2.v A u.u.h.h.h.,.=.3.A 1 g ! M r m N N M m m M m v z r 1 4 ; = = , + . 1 A Q ",
"9 v B j l v g r 4 2 q.+...] _ ~ ) ) G q e.z.5.0.3.2.+.q e.h.u.1.,.O.%.[ 1 y V z z k 4 l M m m b v z z z 4 ; 9 & o o       = B =.",
"9 B B k k k l h z 2 N { ~ ) ~ ~ ` Y x z.z.5.5.7.5.2.5.u { a.p.;.Q ! ! q 6 V V x l z k 2 g b v m z c z t 2 > > +     o O @ ; j / ",
"g B k k k k h h l q g ) T H E W S Q z.k.2.5.5.2.5.3.5.L j 1.2.{ V Y d 6 B T N M M M m f 2 g z c x v v 4 , = .   O .     X @ a Z "
};
