/* XPM */
static char *_3296c81af914bc8e84d893b15019ecac7H2jeaaT0nti3rZ[] = {
/* columns rows colors chars-per-pixel */
"64 64 133 2 ",
"   c #195507",
".  c #145D06",
"X  c #195D07",
"o  c #1C5D08",
"O  c #225E0A",
"+  c #2C5D0D",
"@  c #156406",
"#  c #196407",
"$  c #156B06",
"%  c #196B07",
"&  c #1D6409",
"*  c #166E0A",
"=  c #1D6C09",
"-  c #167006",
";  c #127905",
":  c #1E710A",
">  c #177809",
",  c #1C790C",
"<  c #176412",
"1  c #156B13",
"2  c #1C6E11",
"3  c #1C7311",
"4  c #1B7817",
"5  c #24650A",
"6  c #2B650D",
"7  c #236C0A",
"8  c #2B6C0D",
"9  c #32650F",
"0  c #326C0E",
"q  c #3F6F0F",
"w  c #227307",
"e  c #24720B",
"r  c #2C730D",
"t  c #237A0B",
"y  c #2C7A0D",
"u  c #32730E",
"i  c #39720D",
"p  c #327A0D",
"a  c #3A7C0E",
"s  c #246D13",
"d  c #296F13",
"f  c #21681C",
"g  c #296F1B",
"h  c #366610",
"j  c #366D10",
"k  c #3B6D11",
"l  c #316E18",
"z  c #396E1D",
"x  c #257413",
"c  c #2B7512",
"v  c #247913",
"b  c #2D7915",
"n  c #23741C",
"m  c #2B731B",
"M  c #267C1B",
"N  c #2C7A1B",
"B  c #357411",
"V  c #3B7411",
"C  c #347914",
"Z  c #3B7A13",
"A  c #33751B",
"S  c #3B761A",
"D  c #347B1B",
"F  c #3B7D1B",
"G  c #247422",
"H  c #2F7424",
"J  c #2B7923",
"K  c #3C7522",
"L  c #357E21",
"P  c #3A7E21",
"I  c #347E28",
"U  c #41750C",
"Y  c #416D13",
"T  c #4A6B16",
"R  c #437513",
"E  c #4A7516",
"W  c #437A14",
"Q  c #4A7C15",
"!  c #43761A",
"~  c #49711B",
"^  c #437E1B",
"/  c #4B7D1C",
"(  c #537D16",
")  c #587D14",
"_  c #527618",
"`  c #547B1B",
"'  c #587D1A",
"]  c #427327",
"[  c #437C22",
"{  c #497B24",
"}  c #417629",
"|  c #527528",
" . c #1A8007",
".. c #23800B",
"X. c #29820E",
"o. c #32820E",
"O. c #39800F",
"+. c #2A8113",
"@. c #258219",
"#. c #2D821D",
"$. c #358315",
"%. c #3C8216",
"&. c #36801F",
"*. c #3C811B",
"=. c #2A8124",
"-. c #338123",
";. c #3D8123",
":. c #3C8228",
">. c #43840B",
",. c #438113",
"<. c #4C8215",
"1. c #448A14",
"2. c #498813",
"3. c #44811E",
"4. c #4B821C",
"5. c #53831E",
"6. c #59851C",
"7. c #438223",
"8. c #4B8424",
"9. c #4A8924",
"0. c #45852A",
"q. c #4B8629",
"w. c #488829",
"e. c #538523",
"r. c #598624",
"t. c #538825",
"y. c #5B8D27",
"u. c #528629",
"i. c #53892B",
"p. c #5A8A2C",
"a. c #618C2C",
"s. c #688B2A",
"d. c #678E30",
/* pixels */
"# $ M % & e # $ $ $ = % v p e ;.7 5 5 0 Z 8 c 7 0.8 ^ w 7 = x t ;.7 e b = r e = y N r e 7 & = : 7 g :.7 7 7 8 6 c y 7.r r 0 B i ",
"% x % : & & @ @ N # t = ;.5 5 t e e 8 8 5 e 7 S u 8 r 7 7 : 7 b x 5 e & e 7 7 : e 3 7 8 y = ;.* = 7 5 8 J 6 y y 7 r u C 0 B V W ",
"N n % = & 8 . % =.  u w & e e 7 = e 7 6 8 e 5 7 q.C x 7.7 % b 7 J 8 6 7 7 7 = 5 C = 5 6 O 7 = 7 e H 5 & b 7 5 5 u *.B / h 8 B 3.",
": : D e : = 8 = L e e c 8 7 0 5 = 5 6 e 0 C 0 8 r 8 8 e 7 = 7 7 7 0.w 8 B d e 7 x & 8 F D 5 & & & = N 7 7 7 5 Z e 8 r 4.q.B 8 r ",
"% e # o o # o B P b 5 r x 6 7 r 7 F y 5 5 e 8 u O e #.D e & 7 c b 5 8 D 7 8 ;.b 7 = 5 5 C 7 e 5 : e c e 7 5 5 = D 8 C 0 F a F 0 ",
"= % e & : :.b 7 ;.r V r u 0 u C Z 0 d r B e e v = = e 7 D & & 7 C F e 5 8 7 5 e D = 8 7 c e N x = D = e = e b D 7 e c 8 8 u e./ ",
"= = e e 7 7 8 j 8 0 Z E Z 7.0 r 0 u r 8 e 8 L % 5 b : e d 5 e O 5 u D # x r 6 4.8 6 3.6 x r D 7 7 8 7 5 7 0.7 5 = 5 8 x 8 C B / ",
"= 7 8 7 e U r u V 0 i W ( E V V ! 0 F 8 6 %.7 # : % 7 y i D y O j V 6 C R V Z 8 0 V u e 7 X.e 7.7 8 6 C B r 7 :.: 5 ;.5 e u 0 C ",
"b 7 = P 8 8 8 7 0 V r Z V Y a Q ,.u 8 7 8 & D = : 5 e 7 y 0 u V V C F 0 7 7 & 6 V y B C 8 r C c c r 7 8 e *.7 7 e e n n 8 5 V V ",
"% e b o.C 5 8 6 / V R u 8.F Z i V 0 F 8 7 5 W 6 u 0 u 8 q.9 0 Z 0 0 = x 7 b 7 r j F c r C 8 j h r 7 8 r e C Z c e 7 7 8 c D C B ",
"& 8 = e 8 0 e 8 Z R i.0 V B 8.h Q B 5 c e 8 F c 6 6 7 7 & r V C >.u F % o o r F e 7 u 7 F r r u i F 8 6 j V 8 6 F 6 j 8 0 u 0 3.",
"e 5 7 e [ ^ 8 0 V E 6 a [ Z 3.B C 7 r 7 7 7 x x = # 7 % r 6 [ 5 = 8 7 = = = = F #.F e 8 w.u k F C 0 B j r u &.3.B / F W 8.u j r ",
"^ F 9 ;.x + 6 B W 9 Y 0 F 8 %.Z u.C 8.j 0 D e x t S r ;.B x 8 % L = 7 5 d 7 0.r 5 u i b r 7.r u u V Z 0.~ Y F 6 W V Z p.j Z u 0 ",
"Z ^ 8 r 6 8 4.F 3.u p S u r p V 0 u F j 3.r 7.= u Z u Z e 7 e 7 N $ # % i ! C V 7.u Z j 3.F %.3.e.u C i 4.Z R C h B u R E R Y a ",
"B j 8 r F 9 8 >.y 5 w.0 8 C u W V 8.0 B F B 8 j a u u i.6 r q.[ C t 5 * 7.F 8.2.C 0.8 u i R W V / U u Z 3.Q a C Z u W Y R j V 0 ",
"8 r V Q j F ;.7 7 G 7 8 8 0 F V V V ^ B V W V B y 5 3.7 L # % 7 u Z B C u 3.e 7 b 7 C 7.u W W / j W Z Q 5.W W i a Z V W e.p.W V ",
"8 V F q.0 7 7 e r e 6 6 C V C j 0 8.V / r 8 u 7.= r r # : = % j ^ o % % % b 7 e 7 r F i h u V R Z 8.W p.0 R i C Z F i W W e.p.Z ",
"V k u u u e 7 w 5 = e Z j u B Z V e.0 8 7 7 $.8 b 8.V C 7 7 y 5 7 & : # % 7 = x D e u 0.7.0 E W E Z W 0 0 C F C r = C r 6 u 8 y ",
"9 8 6 8 7 & e y c D b 8 x 6 u 0 j c 3.8 8 r r V r 8 [ u V B = D X = = 7 7 &.= & 5 7 C y r p W i u C B V u 7 5 8 5 7 t 7 i e 6 5 ",
"r 5 K & = = e = 7 5 7 u 8 C D p B 7 r 8 Z 8 C V k u V i F 5 L = % e e v = = & % , 7 7 e B [ ^ V 0 C e b 7 8 c 7 D e = u 5 = = 7 ",
": 5 5 N : & % = D x v D C D e r Z j 7 5 8 7 q.j ! i i.e & e 7 b 7 7 e 7.e N = D x # 7 D e 8 B R F 6 5 O c e 5 7 x = = x D = = e ",
"b r 5 # & b x ..5 r p c 7 D C r I e 6 r r 8 y W 8.8 x Z + x x N : ;.5 & = t $ X = & # % 7 6 0 0 8 e F b = e 5 w 5 e O & % % & = ",
"5 c @ @ b : % = & r 8 p 5 c F e y 7 r ;.y Z %.3.u 7 7 e r 6 7 e 8 6 d B e & & % & D > x p e 7 u u 7 7 b 7 8 7 e y 7 r = e = e & ",
"D = X @ $ x : = r ;.e 7 r 7 6 6 B 8 D b 5 P e.C u j j 8 C F e 6 e 5 V V 8.h 6 b 7 7 e u 8.Z u C + u u Z r 3.8 7 w 8 C 7.d x = b ",
"5 -.D % n =  .D 7 e 7 e b c 6 8 6 6 j 7 8 h { 0 7.N F 0 u 7 8 8 D e 5 8 F y h j C 6 Z W R W Q 2.j w.-.= = % & : = C 7 0 8 8 : = ",
"= 5 = * # % = 7 7 5 c 7 7 s 8 r h Z 6 V Z h V C 7.m 8 r U e y 5 8 C C x b s & 0 V R W / i i W ( Q W ! u 0 r 6 i F 8 r m 7 = b = ",
"= r O = > 3 e = % e e e c 7 r 7.5 8 h V 0 V Z 0 0 0 r C ;.8 r 6 8 c & P = 7 w F Z V C 9 8.w.6 F k V W E 5.R 0.0 x V e & x = e o ",
": B 7 = $ # # % # # e : i S 5 8 B 3.h F B 7.V / r 8 u ^ i 7 8 9 5 5 5 c 5 7 8 u h i 8 i %.u Z 8.B j j Z R j 4.F 5 w = b & N n   ",
"7 c % . # # % # e $ : 7 5 7 D 8 u r *.3.V V u u 9 P B e.7 8 r p r 7 7 7 e C F w 7 8 Z 6 b & e 7 w.i.k V V j Z j 8 = # : # $ % % ",
"X # N $ . & 7 $ o # F 7 P y F 8.0 r Z B i d r u 8 F r 8 -.8 + C [ 8 c 8 u u 7 0.-.D 0 9 r 6 e : & i Y R i.8 r k 0 # # * b # e o ",
"@ L 1 $ # = # * # N L e = 7.j 6 r r p j C 3.7.F p V 7.7 4.r B u 8 8 8 B Z r 8 e 5 e 7 6 r y 6 8 r V e u e.C C 7 F 7 % = u o x % ",
"7 o 7 o 2 # M : X N X 7 6 B 7 c 6 u u u.u F u r C 6 c 8 r u u 0 6 0 q.*.S e 5 b D % b & e y ;.D C o.B C r W 8 *...8 % = % & # * ",
"& e D = & < $ & 5 = L D 7 & 7 6 8 d p ^ c u 5 y 8 6 0.r 8 8 V 7.h 8 j u 8 Z b u r r 7.8 5 e D F K r 7 F 8.( 0 r 8 F # @ :.& v % ",
"^ 8 C 7 x & 5 & : 5 ;.e & x = x 6 8 W 8 6 7 A P C 8 7 e 6 0 u 8 j j 8 y 8 8 F 7 r F 8 r B *.i V C p Z j B 4.B Z p e.e ;.N $.* * ",
"j = 5 = & L S = N % h e e o P 5 r r z r 5 7 O.B x :.C y 8 q.B F C B r e ;.8 8 r e 7 7 7 & V 0 0 r i 8 i 5 u u i V j V u 8   e $ ",
"7.P & y 7 6 e = D : 0.= H % # P 7 8 y 7 e 5 7 = 5 s 6 ! C r u C e u 0 6 C C 0 i u y x = 8.R / i V V e % e 8 7 8 = u 7 = 5 * . @ ",
"% c e 8 e C 5 & @ 7 8 r D 5 e $ e d C 5 7 7 O 5 5 7 F 6 C C + r e p 6 e C P 7 l 6 D C e u E 0 R 4.R R B 4.d e 5 7 - % = e . $ . ",
"L N x 7 7 8 8 # 7 w = b 5 y w.6 e Z C D 5 5 7 l & 7 7 5 C c 6 8 6 u e e 7 5 D 0 7 r 6 C V Q Z R / ! Q 9.u 5 O r & # e % N v $ $ ",
"$ 7 7 X 5 : y 5 = : 7 e x 7 = 5 } D b P C 5 = t c e e 8 r B 6 r 6 C 8 8 A c 8 r & c ! V E V R R R y.T W 0 v * * @ : J w $ @ 4 M ",
"S 7 8 o   = 7 9 5 % = & = b x z 7 : D L 5 x 5 5 O t 8 c 5 5 8 r 8 7 8 8 D e 8 r / ` j 0 8.Y e.Q <./ Z j 0 r b D $ # x * 3 w $ n ",
"b d 8 8 e = 7 Z = = b o = x x e b C V j & f e v 7 7 7 7 8 q.8 D 8 O 8 Z D F 0 7.u V R W Q / W 4.E 8.Z V e o r b = # % % N v . @ ",
"D 0 e e : 5 v r O 7 = = e j 0 7 b 5 B u e 7 7 & M 2 5 7 8 D 7 r 8 C q.Z p u F R B 8 0 y.d.E Q V 1./ W p 5 7 B ^ r M   e : 1 @ @ ",
"C : r e c e w B b 8 8 C 5 a 7 u = B X.5 8 = = G 7 F L s D C 7.6 r R e h 8 u 0.*.*.Z 6.5.6.e.W ) E W U R V V V j C = b e b @ 1 $ ",
"% L J ;.7 B 0 B O e 8 F B c p.u r 0 u i 8 7 & 7 e C Z 8 8 6 r r 0 0 0.S 8 0 u W Q Q E Z V j i y.,.W W W ! E r.R B e & % * $ ; $ ",
"e 8 5 @ 5 = 5 [ e = X % u 8 R a V j 8 7 = 7 = f w 8 7 e 8 9 u { Z 0 8 8 g 9 k Q 0 F K 8.V Y E ! W R R Q R Q Q E x P & O # % w @ ",
"N r 5 e x & 7 j j # @ 5 C ,.W Z h *.e x D 7 % : = = : r e 9 i ^ 0 Z 8 7 5 6 8 Z u u r 6 r Z / W e.Z / W W Q E ! e b 8 5 7 D 7 # ",
"$ = x & d $ n @ 8 e & Z W 0 Y W e.u e 5 e = = x % = e 8 F r 8 I 8 r q.8 7 8 7 e r e x 5 = X.7 j 0 Y Z 8.q W R E 4.u 7 7 e # b $ ",
"# % * % @ X X @ = e j W R R R R R 3.V b & ] C 7 5 5 = e 7 8 7.u u r e r 8 r 0 u D 7 7 7 c 7 7 @.u B 6 p Z W R 5.Z Y C 8 :.& s & ",
"$ 7 s $ % $ b = . b p.V V 3.W ,.W W Z B 7 7 r 7 8 8 D *.u 4.W W R 0 Z Y W a 8 r M e t B 7 7 %.= & r u u V B Z 4.Q u Z 7 0.= D # ",
"= = . @ @ = N # P [ R Z k ! 4.W r.Z j q.b 8 5 y r c C V Q E Q E 7.B j u 6 F 8 0 r 8 5 w = D x D % = # c p Z / 0 W e.a 5 7 : t = ",
"X ;.7 * # r $ % Y a h W V p.k E Z u Z C Z V k / E a.a.R s.5.Q ( W %./ W R Y W 8.Q 0.b 5 7 e = D 5 e O L ;.r u 7.u 8 8 & D r N ;.",
"# x X $ x X % 3.8 Q h 8.V W Q W i 8.Z B ^ j Z W R W r.4.e.' _ ( q p d V r 0 Z 0 u 8 8 e Z 7 5 t c F A x = 5 7 8 8 7.7 5 7 r 7 = ",
"3 $ @ M M 4 0 7 B 8 V 7.i / 4.W u 8.w.8 r B ^ u U 0 F 0 W 5.r.8.0 ^ y u 8 Z r 8 r C C D r e 8 7 6 P 5 b & x e 8 w w 5 7 % : & 7 ",
"$ X $ : @ 7 c # 7 , [ e Z W e.c & e C 7 e + V i 0 7.i W k C 0 / T R C 0 0 r 8 r ! 0 8 6 5 c 7 8 7 5 7 e 7 7 = e 7 % 0 7 e # y e ",
"$ . $ * : F % % $ : e 7 e V F = o 7 r i e C 3.r u 0 ! W F p Y Q Z E i B W C 0 8.8 b j 8 C 0 8 e y x e 7 7 5 5 =.x 7 7 = 7 i 5 8 ",
"$ @ : * 7 7 = v N $ = O D C g 7 5 0.A 5 5 r 0.u k 4.i W W W R Q e.9.V W V p e 7.C %.F 8 p r 8 8 7 5 D P b & & 7 5 7 e 7 D P r 8 ",
"$ - # = = 5 r 3.+ C C 7 5 & 7 7 7 = y c u u 0 F 8 C Z k E i V u Y W V W W u r u 0 B D F 3.0 F 8 c 7 7 e c 7 e 7 8 8 r 8 = 7 6 c ",
"$ =.# b e x 7 D n 7 7 7 v e : e e e y 5 6 r ^ 0.B V u C u V Z R R Q <.R i 0 B B 9 r u r 8 h u u 6 D r 5 5 5 7 8 8 7 8 7 7 y e u ",
"# % = - 7 e F 6 r 7 6 5 e 7 = : ;.& 7 5 5 7 8 e 5 ~ e i k W j k ` / ! V V i r 0 V C C 8 h ,.i.F u B 7 7.7 6 5 F 8 r 8 7 e F r u ",
"# F K = = = e r e 7 r 8 v w e % - J 5 w 5 = b 7 0.r Z 3.R / Q i R ,.8.0 B 3.u ! V p i u V W W V i F B F 7 e F 8 8 7 C C 8 B u 0 ",
"+.y I e % o r 7.u 5 r c e y 5 % e & O 7 0.5 e 7 8 8 0 8.e.E Q F 7./ ,.Z q.E F r Z E Z / u Z F F Z 4.^ y C e 8 r 7.r 8 6 F C 0 a ",
"u C e G 7 &.0 3.i.0 e 7 r 7 & % # 7 + 0 C F 8 e c 8 r V 4.Q V Z W Z V u Z t.V p R e.W V V a 3.V 8.W V q.h 8 8 r 7.7 ^ A d 8 y 0 ",
"e b 1 @ & & f D 0 F 6 7 e 7 = n e : x e c r e u Z 8 Z W 3.Z R | 0 k ! V ^ 6.0 8 Q ( Q Z 8.V u V 4.k ! j u 8 0 e y e r r 6 e 8 V ",
"D x 7 # M x 7 Z u 7 n 3 7 x % 7 t 5 7 7 e 8 C 8 D u 6 a W / W y.R / Q C B V B V 0 Q W T Q V ! ! k Z V k V Z Z 8 F F u r 0 8 0 P "
};
