/* XPM */
static char *f89b509cdf734418d5e3356c7781e703aoOyT7TJ3hepay74[] = {
/* columns rows colors chars-per-pixel */
"64 64 65 1 ",
"  c None",
". c black",
"X c #090909",
"o c #232323",
"O c #2D2D2D",
"+ c gray20",
"@ c #422701",
"# c #442901",
"$ c #4C2D02",
"% c #523204",
"& c #5A3706",
"* c #5B3807",
"= c #5E3B0B",
"- c #613D0D",
"; c #633F10",
": c #654112",
"> c #6A4515",
", c #6D4718",
"< c #6E491A",
"1 c #734D1D",
"2 c #634321",
"3 c #694822",
"4 c #704C21",
"5 c #775020",
"6 c #795322",
"7 c #434343",
"8 c #4C4C4C",
"9 c gray33",
"0 c gray36",
"q c #646464",
"w c #6C6C6C",
"e c gray45",
"r c gray49",
"t c #C70027",
"y c #CA0026",
"u c #C70029",
"i c #CC002C",
"p c #CB0C2F",
"a c #D0002E",
"s c #D40034",
"d c #D10B35",
"f c #D6003A",
"g c #D8003E",
"h c #D60B3D",
"j c #D90041",
"k c #D90C43",
"l c #D91345",
"z c #D61940",
"x c #D91F47",
"c c #D91B48",
"v c #DA274B",
"b c #D92E4D",
"n c #DA3351",
"m c #DA3A56",
"M c #DB3E59",
"N c gray51",
"B c #8B8B8B",
"V c gray59",
"C c #9B9B9B",
"Z c gray64",
"A c #ACACAC",
"S c #B4B4B4",
"D c gray72",
"F c gray77",
"G c #CBCBCB",
/* pixels */
"                                                                ",
"                                                                ",
"                                  yasjfffj                      ",
"                                yjjjjjjjjjj                     ",
"                               sjjjjkkcbjfjj                    ",
"                               fjjjdmbbmxkjjj                   ",
"                               jjgspmmMmnnzjjj                  ",
"                             ........mMMbnMvfjjf                ",
"                         ................bnMkjjjg               ",
"                        ....VVVVVCCCVVV...nmljjjf               ",
"                       ...VVVVCVVCDAZZZC...mhjjfff              ",
"                      ...VVVVCCVVVZDDDSSC....fjjffa             ",
"                     ...VVVVVZZVVVCSDDDSSCV..jfjfyi             ",
"                    ...VVVVVVVVVVVVCSSSDDACV..iffgij            ",
"                    ..VVVVVVVCVVVVVVZDDDDDAV...jsjjsj           ",
"                   ..VVVVVBVVVVVVVCVCZDDDDDAV..sjsssi           ",
"                   ..VVVVVVVVVVVVVVCVCADDDDSZV..jjifja          ",
"                   .rBVVVVVVVVBVVVVVVVCDDSDSDZ..fjyjsu          ",
"                  ..rBVCVVVVVVVNVVVVVVZDDDSSDZV..ffijyj         ",
"                  ..wBCCCVVVCVVVVVVVVCZDSDDDZVV..fjsgss         ",
"                  .eeBCZVCVVVVVVVVVVVVVZCAADZVVV.ajfjfs         ",
"                  .wwBVCVVVVVVVVVVVVVVVVVCCZVVVV.jfsjjs         ",
"                  .wwNVVVVVVVVVVVVCVVVVVVVVVVVVV.ffsjjg         ",
"                  .wwB....VV.....VVVVVVVVVVVCCVV.sjfsj          ",
"                  .eeV...........VVVVCVVVVVVCCVV.ysjts          ",
"                  .eeBVVVV...VVVVVVVBCVVVVVVZZCV.  j            ",
"                  .eeVVVVV..VCVVVVVVBVVVVVCVVVVV.               ",
"                 ..eeBVVVV..VVVVVVVVBVVVVVVVVVVV.               ",
"                 ..weVVVVV..VVCVVVVVVVVVVVVVCVVC+               ",
"                 .BwwBVVVV..VVZCVVVVVVVCVVVVVCZAN+              ",
"                 .ZerVVVVV..VVVVVVVVVVVVCVCZADDDD+.             ",
"                 .SSAAAZCV..ZZZCCVCCCZAAAASDDDDD7X.             ",
"                 .ADDDDDAC..DDDSASASDDDDDDDDDDD+X.              ",
"                 ..ZASDDDA..+SDDDSDDDDDDDDSDS8XX                ",
"                 .......ZV..X7NNrSSSSSDSN08+X..                 ",
"           ........89r...orr.XOX..........rrBN..                ",
"         ....*&=.....rrrrBVVBBNNBNNNNNN.rrrrVVV.                ",
"       ...&&*&=11>....NNrNVVBVVVVVVVCVV..rrrBVV..               ",
"      ..&$#$%&=>,6<>:..NrNrNrrrNBVVCVNN..0rrNVV..               ",
"      ..#@#$$&=>>556<..VVVrrrrrCVVNNqqqq..rrrVVV..              ",
"      ..#@#$%&=>>6665..qqVVrrrrrqqqqq90q0.qrrNVV..              ",
"      ..#@#$%&=>>1665..8qqrrqqqqq980eeBN0.9rrNVVN.              ",
"      ..#@@$%&->>1666..98qqqq89qqerrrrBVr.8rrNBVN.              ",
"      ..#@#$%&=>,5665..rrqqqer07777rrrNVV..rrrNCV.              ",
"      ..$@#$%&=>>466<..rrrrrr777GG7777rNVB.0rrrrN.              ",
"      ..$@#$$&:>,1664..rrrrr77GGGGGGG777ZN.9errrr..             ",
"      ..%@$$$&:>,5663..rrrr77GGGGGGGGGG7777rr7rrrr.             ",
"      ...@#$$&:><6662.0err77FGGGGGFFDGGGGG7887rrrr.             ",
"       ..###$&:>>661..8wrr77CCV777777777FFFVB7.rrr.             ",
"       ..#@$$&->>66=..80rrr77BBBBBBBNBBBBVBVV7.rr..             ",
"        ..$$$&=>16;...80rrrr77BBBNBBBBBBB77887r...              ",
"        ..@$%&->16=...89rrrrr77BBBBBB77890r. 7..                ",
"         ..%&*:>1-....89rrrrrr77777789rrNr..                    ",
"         ...&*=6-.. ..88rrNV...7780rNrrNVB..                    ",
"          ...&&...  ..88erNC.. .qrrrrrrBV...                    ",
"           ......   ..98eNBV.. ..8errrrBC..                     ",
"            ....    ...80rNV.. ..89rrrNVV..                     ",
"             ..     ...89eV... ...8errrr...                     ",
"                     ...rr...   ..9rrr....                      ",
"                      ......     .......                        ",
"                      .....       .....                         ",
"                                                                ",
"                                                                ",
"                                                                "
};
