/* XPM */
static char *_dc62e8aea544b3ebfdbe6722906c555ZOqBwzfzh3HvIIRK[] = {
/* columns rows colors chars-per-pixel */
"64 64 66 1 ",
"  c None",
". c #000000",
"X c #090909",
"o c #111111",
"O c #232323",
"+ c #2D2D2D",
"@ c #333333",
"# c #422701",
"$ c #442901",
"% c #4C2D02",
"& c #523204",
"* c #5A3706",
"= c #5B3807",
"- c #5E3B0B",
"; c #613D0D",
": c #633F10",
"> c #654112",
", c #6A4515",
"< c #6D4718",
"1 c #6E491A",
"2 c #734D1D",
"3 c #634321",
"4 c #694822",
"5 c #704C21",
"6 c #775020",
"7 c #795322",
"8 c #434343",
"9 c #4C4C4C",
"0 c #545454",
"q c #5C5C5C",
"w c #646464",
"e c #6C6C6C",
"r c #737373",
"t c #7D7D7D",
"y c #C70027",
"u c #CA0026",
"i c #C70029",
"p c #CC002C",
"a c #CB0C2F",
"s c #D0002E",
"d c #D40034",
"f c #D10B35",
"g c #D6003A",
"h c #D8003E",
"j c #D60B3D",
"k c #D90041",
"l c #D90C43",
"z c #D91345",
"x c #D61940",
"c c #D91F47",
"v c #D91B48",
"b c #DA274B",
"n c #D92E4D",
"m c #DA3351",
"M c #DA3A56",
"N c #DB3E59",
"B c #828282",
"V c #8B8B8B",
"C c #969696",
"Z c #9B9B9B",
"A c #A3A3A3",
"S c #ACACAC",
"D c #B4B4B4",
"F c #B8B8B8",
"G c #C4C4C4",
"H c #CBCBCB",
/* pixels */
"                                                                ",
"                                                                ",
"                      kgggkdsu                                  ",
"                     kkkkkkkkkku                                ",
"                    kkgknvllkkkkd                               ",
"                   kkklcMnnMfkkkg                               ",
"                  kkkxmmMNMMadhkk                               ",
"                gkkgbNmnNNM........                             ",
"               hkkklNmn................                         ",
"               gkkkzMm...CCCZZZCCCCC....                        ",
"              gggkkjM...ZAAASFZCCZCCCC...                       ",
"             sggkkg....ZDDFFFACCCZZCCCC...                      ",
"             pugkgk..CZDDFFFDZCCCAACCCCC...                     ",
"            kphggp..CZSFFDDDZCCCCCCCCCCCC...                    ",
"           kdkkdk...CSFFFFFACCCCCCZCCCCCCC..                    ",
"           pdddkd..CSFFFFFAZCZCCCCCCCVCCCCC..                   ",
"          skgpkk..CADFFFFSZCZCCCCCCCCCCCCCC..                   ",
"          idkukg..AFDFDFFZCCCCCCCVCCCCCCCCVt.                   ",
"         kukpgg..CAFDDFFFACCCCCCBCCCCCCCZCVt..                  ",
"         ddhdkg..CCAFFFDFAZCCCCCCCCZCCCZZZVe..                  ",
"         dgkgks.CCCAFSSZACCCCCCCCCCCCCZCAZVrr.                  ",
"         dkkdgk.CCCCAZZCCCCCCCCCCCCCCCCCZCVee.                  ",
"         hkkdgg.CCCCCCCCCCCCCZCCCCCCCCCCCCBee.                  ",
"          kdgkd.CCZZCCCCCCCCCCC.....CC....Vee.                  ",
"          dykdu.CCZZCCCCCCZCCCC...........Crr.                  ",
"            k  .CZAACCCCCCZVCCCCCCC...CCCCVrr.                  ",
"               .CCCCCZCCCCCVCCCCCCZC..CCCCCrr.                  ",
"               .CCCCCCCCCCCVCCCCCCCC..CCCCVrr..                 ",
"               @ZCCZCCCCCCCCCCCCCZCC..CCCCCre..                 ",
"              @BSAZCCCCCZCCCCCCCZACC..CCCCVeeV.                 ",
"             .@FFFFSAZCZCCCCCCCCCCCC..CCCCCtrA.                 ",
"             .X8FFFFFDSSSSAZZZCZZAAA..CZASSSDD.                 ",
"              .X@FFFFFFFFFFFDSDSDFFF..ZSFFFFFS.                 ",
"                XX9DFDFFFFFFFFDFFFD@..SFFFDSA..                 ",
"                 ..X@9qBDFDDDDDtBB8X..CA.......                 ",
"                ..BVtt..........X+X.ttO...t09........           ",
"                .CCCtttt.BBBBBBVBBVVCCVtttt.....-*=....         ",
"               ..CCVttt..CCZCCCCCCCVCCBtBB....,22-*=**...       ",
"               ..CCBttq..BBCZCCVBtttBtBtB..>,17<,-*&%$%*..      ",
"              ..CCCttt..wwwwBBCCZtttttCCC..1766,,-*%%$#$..      ",
"              ..CCBttw.qwq0wwwwwtttttCCww..6777,,-*&%$#$..      ",
"              .BCCBtt0.qBVrrq90wwwwwttww9..6772,,-*&%$#$..      ",
"              .BCVBtt9.tCVttttrww09wwww90..7772,,;*&%##$..      ",
"              .CZBttt..CCBttt8888qtrwwwtt..6776<,-*&%$#$..      ",
"              .Bttttq.VCBt8888HH888tttttt..1775,,-*&%$#%..      ",
"             ..ttttr0.BA888HHHHHHH88ttttt..5772<,>*%%$#%..      ",
"             .tttt8tt8888HHHHHHHHHH88tttt..4776<,>*%%%#&..      ",
"             .tttt8998HHHHHFGGHHHHHG88ttrq.37771,>*%%$#...      ",
"             .ttt.8VCGGG888888888CZZ88tte9..277,,>*%$$$..       ",
"             ..tt.8CCVCVVVVBVVVVVVV88tttq9..-77,,;*%%#$..       ",
"              ...t89988VVVVVVVBVVV88ttttq9...:72,-*%%%..        ",
"                ..8 .tq0988VVVVVV88ttttt09...-72,;*&%#..        ",
"                    ..tBtt09888888tttttt09....;2,>=*&..         ",
"                    ..VCBttBtq988...CBtt99.. ..;7-=*...         ",
"                    ...CVttttttw. ..ZBtr99..  ...**...          ",
"                     ..ZVttttr9.. ..CVBr90..   ......           ",
"                     ..CCBttt09.. ..CBtq9...    ....            ",
"                     ...ttttr9... ...Cr09...     ..             ",
"                      ....ttt0..   ...tt...                     ",
"                        .......     ......                      ",
"                         .....       .....                      ",
"                                                                ",
"                                                                ",
"                                                                "
};
