/* XPM */
static char *f52ccd99d9704e4bd70e17b2b25d3e6e2hKvAmsUhQqBNVmW[] = {
/* columns rows colors chars-per-pixel */
"64 64 39 1 ",
"  c black",
". c gray2",
"X c #090909",
"o c #0E0E0E",
"O c #111111",
"+ c #3A3A3A",
"@ c #3E3E3E",
"# c #414141",
"$ c gray27",
"% c #4B4B4B",
"& c #4E4E4E",
"* c #515151",
"= c #565656",
"- c #585858",
"; c gray37",
": c gray38",
"> c gray40",
", c #6A6A6A",
"< c gray43",
"1 c gray44",
"2 c #767676",
"3 c #7B7B7B",
"4 c #7C7C7C",
"5 c #818181",
"6 c #848484",
"7 c #8B8B8B",
"8 c #8D8D8D",
"9 c #929292",
"0 c gray59",
"q c gray60",
"w c #9F9F9F",
"e c gray64",
"r c #A5A5A5",
"t c #A7A7A7",
"y c #D0D0D0",
"u c gray84",
"i c #DFDFDF",
"p c gray88",
"a c #FBFBFB",
/* pixels */
"aiiippppiipiiiiippippiiiipiiiiiiiipiipppiiiippiiipiiypppppiiiii*",
"y45412*=;::::::>:;::-&%=;;::::,22,>231542,177432451,414545,22<: ",
"y55512;=;,>;->::>;:,>-&%*-->,<141<>12231,>6733345,,221233<::,:: ",
"y45432>=->>--:;;:;>>,:-*%%&*-;,<,>>1221>,1933223,,234,<,:;,>>-< ",
"y433331-=;:;-;:::;::>>;=%$--=*-==-;,<<:;165321>>,<1>,:;-:=,1-,4 ",
"y454,<1;*=;;-::;:-:-;-;-=:442,,-***=->=:365322<2>:;;;<,:;:>:*<6 ",
"y3341<1:==;----=->,14492:40rreq863>;-=&:132213,<<,:;>>>1;;,&<46 ",
"y344231,=*-;:,137698098<:7errreeewq054;*,<<<,1,;-:;=--;-=%*$155 ",
"y343121>;>33570qqqq8442>:50w088qwwwq442=&->,:>:;:>,>>>,<22<%>34 ",
"y33212<->6w8q085465643<>358w75345663134<;*;,,<<34780q947667;=<5 ",
"y43<43,=<7w75467644541>,85385644543125773,:47qq009q00876649<=>4 ",
"y21<<<--10065<3664544<:2e02155454421456652::1054347555675367;:2 ",
"y2122<-:3q665,<314531>>4eq1,34552323567654<::19222331,,34328,*> ",
"y3232,-406332<--1211,-<9w8<,7645365554763562->2112353<<131261=; ",
"y222<::79653,;:332,>,;2wr6,,4461323555565653<;,<1123144541153;= ",
"y21<,=108651--<441;<:,5e853;,353,345454655544,:><<11,,,<22<<4>& ",
"y11<>=89552,:,>23>;<=3q6645<:133<2654535454554,;:>;>::>>>,>>41= ",
"y12<-:0843,-,1<32,>>=5q65455<,<34>3532234455362::,>:<221357343> ",
"y<<>;49652<<2323,:,=:78565644,;352:<;=<23454141>15655788qww766< ",
"y<>;:4634231<<>>::,%2666655444<:331-:325454>,3,<8wee0776523366< ",
"y:;-,554<>>>>>>>:,>=595552<24432>,:<6651344<:,:49q00q6346447851 ",
"y;**:<1<<::>:,>,1<;:49655222212<2<1<245245,,:>:589841,145545761 ",
"y<:,4321,>:;:<>><,-2554432121243<23114421<:>>;:99933<:135522341 ",
"uq09q87531<,>:;;;=&354334643213<>221>,111,>:>=<77523>><342,<1<> ",
"yq00wwewq0w9852<>-&-2312455332>:>,,<>:21,:::,*379334>-141<,<<:- ",
"y87758980qqwqqrrq8>$$:22<52<3,:,>,142:,,>;;::-707422:;4<,,>>>;; ",
"y877467788865889qr75=$*:2531::,>12442>*=::=;*,653<,;-=,,:;>,:-: ",
"y87755688896578897q03>*%=14<:<<<21<,,1;*=;-:$56,>,>:;=,:;<,<:;> ",
"y997746867886587770e931:%*,=>1<::>:>>>><=&=;&95>;,<;;=-::,,:-;: ",
"y88875676667844677780774:%#&,2>;;>::;:::;&*=,83>><1:;;&=;;:;-;; ",
"y888557786568535876888775,&#=>:;-:=*=;>---&%>7,>,<<--:===*;---- ",
"y88878966687456777587766773=#@$%%%%*=-:-;;&@26,>-::*:;*$*%=--== ",
"y9976795537977675535544533<:;174<<<>-*=*%@+#36<>:;&;;:;%&*;:;** ",
"y7357778771666<266667665431=<7009987896766>@;1>>:=*-:;=&%=--=*- ",
"y6564168771<2<2454365653<>>-4rrrreq00qq098<%&,>::*-;:::-%==-==: ",
"y786,3655662:>123427673>:1=<8r0888008879651;#>:::=;::;;*#%*---: ",
"y6641545543462;2354676,:<,-5qe76666764264441@:;;:=;,>-*%%$%&;-; ",
"y351,1>5734656<335725<<21&28e074565455541<45$--*&%&;-*%*:==$*;, ",
"y44,>2>2367784421454,>>>=-6eq624686557651253-&&=;=*&*&-,:*&%%=; ",
"y4<;<64<244454455541>>2>=39e8726555555543542<%*:;;--*:,;:>=$%=: ",
"y2;;411234533414543-><<::6e9662<6656454234521*=;;:;:::>>:::=$#* ",
"y>-><134454336123<>;><;:40w7565>144433-<45512;-;>>;;>:;:;:,;=%$ ",
"y,<,22224422342,::;,2,;<8wq55651>,34<:;345432>-->>--:;;;=-;:=&$ ",
"y<3433112<<<>,::>>;22-,40w7445443-;:><23433431-=;:;=;;:-***-=&% ",
"y145321<:;;;;-,,::>;-*<9w74654462-&-32,1453,<1;*-;;-::::-;=;-== ",
"y12211<;;;::;><1<>>>&,5w73354466<;;=3534333<>,:==-;---=->,12132 ",
"y,1<<,1,-;:---=--=&*$18953345553->>;,322344,><,-*-;:,<36898043, ",
"y&-:>:>:::>,>>>,122<&>355434455>,31;>322334>:<>->3447800978431, ",
"y;*;<<22334677707997;=<5664334<,243,,543332::<->6qqw097455643,, ",
"y4,>8q9090qw090989991*>4655432,<<231,45442<>,>=1we75567544541>, ",
"yq4>,6644347566788896;;2435233><3421455431:->-=4q76544664543<;1 ",
"y602:>573222<1<245779,*>4<324443311112132,:>,=>75221<<1444<2:>3 ",
"y3993->382225533436782=-33323444<23224332,>>,-15,>><31212<12-<5 ",
"y56901:,21123344524784;=<231243123312343>>>>*=45453335332>3<:58X",
"y65564,:>,<12223423444>&=131123232111341>::,=<5336543443<:<;<99O",
"y454544,;:>><11231,,252*&<2211352<<<121,:;<:=89555534333,:<=2w6 ",
"y3455262::,,,132,;,3143>%<222244>>;;;-:;;,<-:89444335332,:>=4q6 ",
"y3554251><554431;<662561&-231<14<-=;:;,>,<>;445554223<<>:,=>785 ",
"y345233>,25553,>,4233651-$=---:,211<,>,,<>;:4535442,>:>>->&2q86 ",
"y355513:,34532>:36447851:*,>:;=--;;;===;:;-,55443<,>:,>;:>=7e65 ",
"y45352<:14343,:355445652;,577621,>;==-:;-*=:<1<<112,<::::;:8865 ",
"y43322:;14123<1235522341-400qqerrw7,:,<<,:,3321,>:::,:><,-25544 ",
"y32222-:23121,12343,<2<::6733333097<<578843776521<,:::;:=&35433 ",
"                         oo     .Oo                             "
};
